<svg id="Layer_1" enable-background="new 0 0 512.002 512.002" height="512" viewBox="0 0 512.002 512.002" width="512" xmlns="http://www.w3.org/2000/svg"><g><g clip-rule="evenodd" fill-rule="evenodd"><ellipse cx="256.001" cy="90" fill="#fff" rx="80" ry="80" transform="matrix(.987 -.16 .16 .987 -11.111 42.169)"/><path d="m256.001 170c-44.183 0-80-35.817-80-80h-60c-22 0-40 18-40 40v332.002h72.75v-212-20.001c0-11 9-20 20-20h174.501c11 0 20 9 20 20v20.001 212h72.75v-332.002c0-22-18-40-40-40h-60c-.001 44.183-35.818 80-80.001 80z" fill="#cbe558"/><path d="m343.251 210.001h-174.5c-11 0-20 9-20 20v20.001h107.25 107.25v-20.001c0-11-9-20-20-20z" fill="#6d91ac"/><path d="m148.751 250.002h107.25v212h-107.25z" fill="#66e0f7"/><path d="m256.001 250.002h107.25v212h-107.25z" fill="#66e0f7"/><path d="m363.251 462.002h-107.25-107.25-72.75-46c-11 0-20 9-20 20v20h492v-20c0-11-9-20-20-20h-46z" fill="#6d91ac"/></g><g><path d="m482.001 452.002h-36v-322.002c0-27.57-22.43-50-50-50h-50.559c-4.991-44.937-43.196-80-89.442-80s-84.451 35.063-89.441 80h-50.559c-27.57 0-50 22.43-50 50v322.001h-36c-16.542 0-30 13.458-30 30v20c0 5.523 4.477 10 10 10h492c5.522 0 10-4.477 10-10v-20c.001-16.541-13.457-29.999-29.999-29.999zm-226-432.002c38.598 0 70 31.402 70 70s-31.402 70-70 70-70-31.402-70-70 31.402-70 70-70zm-170 432.001v-322.001c0-16.542 13.458-30 30-30h50.559c4.991 44.937 43.196 80 89.441 80 46.246 0 84.451-35.063 89.442-80h50.559c16.542 0 30 13.458 30 30v322.001h-52.75v-222c0-16.542-13.458-30-30-30h-42.246c-5.522 0-10 4.477-10 10s4.478 10 10 10h42.246c5.514 0 10 4.486 10 10v10.001h-.001-194.5v-10c0-5.514 4.486-10 10-10h42.254c5.523 0 10-4.477 10-10s-4.477-10-10-10h-42.254c-16.542 0-30 13.458-30 30v222l-52.75-.001c0 .001 0 .001 0 0zm72.75 0v-192h87.25v191.999l-87.25.001c0 .001 0 .001 0 0zm107.25-191.999h87.249.001v192h-87.25zm226 232h-472v-10c0-5.514 4.486-10 10-10h452c5.514 0 10 4.486 10 10z"/><path d="m256.001 100h29.999c5.522 0 10-4.477 10-10s-4.478-10-10-10h-19.998v-29.999c0-5.523-4.478-10-10-10s-10 4.477-10 10v39.999c-.001 5.523 4.476 10 9.999 10z"/><path d="m143.073 162.93-12.929-12.929 12.929-12.929c3.905-3.905 3.905-10.237 0-14.143s-10.237-3.905-14.143 0l-20 20c-3.905 3.905-3.905 10.237 0 14.143l20 20c1.953 1.953 4.512 2.929 7.071 2.929s5.119-.976 7.071-2.929c3.907-3.905 3.907-10.237.001-14.142z"/><path d="m368.928 177.073c1.953 1.953 4.512 2.929 7.071 2.929s5.118-.976 7.071-2.929l20-20c3.905-3.905 3.905-10.237 0-14.143l-20-20c-3.906-3.905-10.236-3.905-14.143 0-3.905 3.905-3.905 10.237 0 14.143l12.929 12.929-12.929 12.929c-3.904 3.904-3.904 10.236.001 14.142z"/><path d="m256.009 220.001c5.523 0 10-4.477 10-10s-4.477-10-10-10h-.007c-5.523 0-9.996 4.477-9.996 10s4.48 10 10.003 10z"/></g></g></svg>